<svg version="1" xmlns="http://www.w3.org/2000/svg" width="554.667" height="554.667" viewBox="0 0 416.000000 416.000000"><path d="M362.7 40.6c-.1.1-6.7.4-14.7.7-24 .9-52 5.7-78 13.2-40.5 11.7-73.4 32-92.1 56.8-14.4 19.1-24.3 42.1-26.5 61.3-1.1 9.6-.8 38.3.5 43 .5 2.1 1.3 5.5 1.6 7.4 2.1 12.2 16.2 49.7 19.1 50.7 1.1.4.7-3.4-1.6-16.2-9.8-55.5-3.4-94.4 20.9-124.7 13.4-16.8 34.7-34.1 53.9-43.7 16.4-8.2 55.6-22.1 72.2-25.5 1.4-.3 12.6-2.8 25-5.6 12.4-2.9 23.5-5.3 24.8-5.6 3.2-.6 13.1-2.3 17.2-2.9 1.9-.3 4.2-.8 5-1 .8-.2 4-.6 7-1 25.1-2.6 21.1-4.7-11.5-6.1-7.7-.3-15.9-.6-18.3-.8-2.3-.1-4.3-.1-4.5 0z"/><path d="M386.9 82.4c-.2.2-6 .6-12.9 1-6.9.3-14.3.8-16.5 1.1-20.9 2.8-45 8.6-58.1 13.9-23.5 9.6-48 28.2-59.3 45.2-5 7.5-10.5 20.8-11.4 27.7-.6 4.6.7 5.7 2.1 1.8.6-1.6 2.7-5.5 4.7-8.7 16.5-25.8 60.1-51.2 120-69.9 20.7-6.5 31.2-10.3 32.1-11.6.5-.9.1-1.2-.7-.5zM337.8 137.5c-.2.2-2.1.5-4.3.8-2.2.3-7.8 1.8-12.5 3.2-15.9 5-27.5 12-38.5 23-6.3 6.3-13.9 17.5-11.8 17.5.4 0 3.1-1.6 5.8-3.6 21.7-15.7 41.9-27.4 62.5-36.1l12.5-5.3-6.7.2c-3.7 0-6.9.2-7 .3zM85.9 159.4c-.2.2-2 .7-3.9 1-12.5 2-30.7 11.8-43.3 23.5-8.2 7.5-20.4 27.2-24.7 39.6-2.2 6.4-1.8 6.8 6 7.8 6.7.9 11 1.9 11.5 2.7.3.4-.6 2.8-2 5.2-3.1 5.7-5.5 12.2-6.1 17.3-.3 2.2-.7 5.4-.9 7.2-.6 4.2 1.2 5.2 2.7 1.6l1.1-2.8.6 3.2c.4 2.1 1.9 4.2 4.6 6.3 2.2 1.7 5.6 4.8 7.5 6.8l3.5 3.6-3.5-2.3c-5.5-3.5-11.9-6.5-12.5-5.9-.3.3-.9 2.5-1.4 4.9-.9 4.5-1.3 4.2-1.5-1.3 0-1.7-.6-3.3-1.2-3.5-.6-.2-3.3 1.3-6 3.3l-4.9 3.7 3.5-3.9c1.9-2.1 4.5-4.9 5.8-6.1l2.3-2.3h-4.8c-5.9 0-10.3 2.5-13.7 7.7-2.5 3.8-4.6 10.8-3.9 12.9.7 2.2 10.3-1.8 15.4-6.3 2.6-2.4 4.9-4.3 5.1-4.3.2 0 .4 1.2.5 2.7 0 1.6.3 4.7.7 7 .8 4.2.7 4.3-1.8 4.3-4.5 0-9.5 2.7-10.7 5.7-.7 1.8-.9 6.1-.5 11.8.8 11.5 1.1 12.8 2.3 13.2 2 .7 10-7.7 12.2-12.6 1.1-2.7 2.6-5.3 3.1-5.6.6-.4.9-.3.8.2-.5 1.8 1.4 9.9 3.4 14.7 5.6 13.3 14.1 21.5 23.7 22.9l3.4.6-.6-5.6c-.8-7.3-5.3-14.2-14.9-22.4-9.5-8.1-12.9-13.3-6.5-10.1 3 1.6 17 2.3 18.3.9 1.4-1.4-6.8-12.9-11.4-16-1.9-1.2-4.4-1.7-8.2-1.6h-6.5c-.6-.1-1.1-2.8-1-6.5v-6.4l4.7 4.4c2.5 2.4 5.7 4.6 7 4.8 8.6 2 9.2 1.5 7.2-5.3-2.1-7.2-7.7-11.7-15.5-12.3-2.2-.2-2.6-.6-2.3-2.6.8-4.2 3.5-11.6 7.5-20 4.4-9.6 3.6-9.4 15.4-3.3 8.2 4.2 18.2 13.9 25.4 24.7 3.6 5.4 6 10.8 10 23 2.9 8.7 6.8 19 8.7 22.9 7.7 15.1 20.2 29.5 34.6 39.8 12.9 9.3 35 18.2 51.2 20.6 3.3.6 7.9 1.3 10.1 1.6 5.1.8 27.3.8 35.1 0 3.2-.3 9.7-1.3 14.4-2.2 4.7-.8 9.6-1.7 10.9-1.9 3.3-.7 21-6.3 24.6-7.9 1.7-.7 5.7-2.4 9-3.8 15.6-6.5 47.8-25.7 46.1-27.5-.3-.3-3.4.7-6.8 2.1-17 7-51.8 17.2-65.8 19.2-1.9.3-4.4.7-5.5 1-4.3.8-16.4 1.8-25.6 1.9-40.6.8-75.3-11.5-95.8-34-9.9-10.8-14.9-19.9-23.1-41.6-5.9-15.5-9.7-23.2-15.3-30.8-11.1-15.1-34.3-31.5-47.7-33.6-3.2-.5-4-1.1-4-2.8.1-5.9 8.5-17.8 17.8-25.2 9.9-7.9 25.5-15.7 33.9-17 2.1-.3 4.1-.8 4.5-1 1.8-1.1 27.4-.3 36.6 1.2 5.1.8 3.7-1.3-2.5-3.6-11.4-4.3-24.6-7.1-35.4-7.6-5.8-.2-10.8-.2-11 0zM38.3 297.3c5.9 3.2 10.7 6 10.7 6.2 0 .4-12.5-3.1-13.7-3.8-.4-.3-2.5-.8-4.5-1.1-4.5-.7-5.3 0-10.3 8.9-4 7.3-5.9 8.1-2.7 1.3 5.9-13 7.1-16.9 6.5-21.8l-.4-3.5 1.9 4c1.6 3.4 3.4 4.8 12.5 9.8z"/></svg>